<svg id="icons" xmlns="http://www.w3.org/2000/svg" viewBox="0 0 48 62"><defs><style>.cls-1{fill:#e7e9e9;}.cls-2{fill:#4dbe86;}</style></defs><title>png64_px - Colored -70 Basic Icons</title><g id="Icon"><path class="cls-1" d="M45.76,0.48a4.13,4.13,0,0,0-4.31.27L20.19,15.65v30.7l21.26,14.9a4.13,4.13,0,0,0,4.31.27A4.2,4.2,0,0,0,48,57.79V4.21A4.2,4.2,0,0,0,45.76.48Z"/><path class="cls-2" d="M14.82,15.5v0a3.58,3.58,0,0,0-.4,0H3.93A4.09,4.09,0,0,0,0,19.73V42.27A4.09,4.09,0,0,0,3.93,46.5H14.42a3.58,3.58,0,0,0,.4,0v0h5.65v-31H14.82Z"/></g></svg>