<svg id="icons" xmlns="http://www.w3.org/2000/svg" viewBox="0 0 60 60"><defs><style>.cls-1{fill:#f0f0f1;}.cls-2{fill:#ec5044;}.cls-3{fill:#495660;}</style></defs><title>png64_px - Colored -70 Basic Icons</title><g id="Icon"><path class="cls-1" d="M0,25.71V56.33C0,58.35,1.92,60,4.29,60H55.71C58.08,60,60,58.35,60,56.33V25.71H0Z"/><path class="cls-2" d="M55.71,5.71H4.29A4.29,4.29,0,0,0,0,10V25.71H60V10A4.29,4.29,0,0,0,55.71,5.71Z"/><path class="cls-3" d="M15.18,17.14a3,3,0,0,1-3-2.86V2.86a3,3,0,0,1,6,0V14.29A3,3,0,0,1,15.18,17.14Z"/><path class="cls-3" d="M43.18,17.14a3,3,0,0,1-3-2.86V2.86a3,3,0,0,1,6,0V14.29A3,3,0,0,1,43.18,17.14Z"/><path class="cls-3" d="M26.28,51.43a2.85,2.85,0,0,1-2-.86l-7.7-7.9a2.86,2.86,0,1,1,4.09-4l5.74,5.89L39.47,32.21a2.86,2.86,0,1,1,3.92,4.16L28.24,50.65A2.85,2.85,0,0,1,26.28,51.43Z"/></g></svg>