<svg id="icons" xmlns="http://www.w3.org/2000/svg" viewBox="0 0 64 60"><defs><style>.cls-1{fill:#e7e9e9;}.cls-2{fill:#a1a3a4;}.cls-3{fill:#38b1e7;}.cls-4{fill:#9ca3a7;}.cls-5{fill:#ec5044;}.cls-6{fill:#458eaf;}</style></defs><title>png64_px - Colored -70 Basic Icons</title><g id="Icon"><path class="cls-1" d="M63.16,0.88A3,3,0,0,0,60.83,0H43.33A17.25,17.25,0,0,0,32,4.6,14.92,14.92,0,0,0,21.58,0H4.4A4.47,4.47,0,0,0,.91,1.12,3.41,3.41,0,0,0,0,3.48V49.08a2.72,2.72,0,0,0,2.62,2.8H22.15c3,0,6.32,1.53,7.81,3.63a2.56,2.56,0,0,0,2.08,1.11,2.52,2.52,0,0,0,.3-0.05,2.58,2.58,0,0,0,.31.05,2.62,2.62,0,0,0,2.13-1.11c1.52-2.1,4.86-3.63,8-3.63H61.33A2.74,2.74,0,0,0,64,49.08V3.33A3.35,3.35,0,0,0,63.16.88Z"/><path class="cls-2" d="M32.8,8.43a1.07,1.07,0,1,0-2.13,0L31.2,46.24a1.09,1.09,0,0,0,1.07,1.09h0a1.09,1.09,0,0,0,1.05-1.13Z"/><path class="cls-3" d="M23.33,12.57H8.67a1.09,1.09,0,0,1-1.33-1,1.09,1.09,0,0,1,1.33-1H23.33a1.09,1.09,0,0,1,1.33,1A1.09,1.09,0,0,1,23.33,12.57Z"/><path class="cls-4" d="M22.67,26.57H17.33a1,1,0,1,1,0-2h5.33A1,1,0,1,1,22.67,26.57Z"/><path class="cls-4" d="M22.67,32.57H17.33c-0.74,0-1.33-1.27-1.33-2s0.6-2,1.33-2h5.33c0.74,0,1.33,1.27,1.33,2S23.4,32.57,22.67,32.57Z"/><circle class="cls-5" cx="10.67" cy="27.33" r="3.33"/><path class="cls-4" d="M23.33,18.57H8.67c-0.74,0-1.33-1.27-1.33-2s0.6-2,1.33-2H23.33c0.74,0,1.33,1.27,1.33,2S24.07,18.57,23.33,18.57Z"/><path class="cls-4" d="M22.67,38.57H12c-0.74,0-1.33-1.27-1.33-2s0.6-2,1.33-2H22.67c0.74,0,1.33,1.27,1.33,2S23.4,38.57,22.67,38.57Z"/><path class="cls-6" d="M61.33,50.56H42.75a16.94,16.94,0,0,0-10.09,3.27,16.94,16.94,0,0,0-10.09-3.27H2.67a2.7,2.7,0,0,0,0,5.39H22.58c3.1,0,6.45,1.22,8,3.22a2.45,2.45,0,0,0,2.12.82h0l0.47,0,0.36-.06h0a2,2,0,0,0,1.29-.74c1.52-2,4.86-3.22,8-3.22H61.33A2.7,2.7,0,0,0,61.33,50.56Z"/></g></svg>