<?xml version="1.0" encoding="iso-8859-1"?>
<!-- Generator: Adobe Illustrator 19.0.0, SVG Export Plug-In . SVG Version: 6.00 Build 0)  -->
<svg version="1.1" id="Layer_1" xmlns="http://www.w3.org/2000/svg" xmlns:xlink="http://www.w3.org/1999/xlink" x="0px" y="0px"
	 viewBox="0 0 512 512" style="enable-background:new 0 0 512 512;" xml:space="preserve">
<path style="fill:#FFDAB3;" d="M363.965,56.475c0-27.538-21.881-50.542-49.416-50.905c-26.562-0.349-48.515,20.086-50.573,46.047
	c-10.743,49.396-34.276,65.225-120.774,154.295l-26.332,0.003c-9.18,0-16.696,7.477-16.696,16.696v233.739
	c0,9.219,7.474,16.693,16.693,16.693h294.959c37.53-0.022,62.793-40.435,43.4-74.637c21.714-13.764,30.639-42.193,16.696-66.783
	c21.714-13.764,30.639-42.193,16.696-66.783c14.01-8.88,23.371-24.411,23.383-42.23c-0.018-27.668-22.419-50.07-50.087-50.087
	H340.38C354.225,130.991,363.965,100.955,363.965,56.475L363.965,56.475z"/>
<path style="fill:#32BBFF;" d="M116.87,172.523H16.696C7.515,172.523,0,180.001,0,189.219v300.522
	c0,9.214,7.482,16.693,16.696,16.693H116.87c9.214,0,16.696-7.48,16.696-16.693V189.219
	C133.565,180.001,126.05,172.523,116.87,172.523z"/>
<path style="fill:#2C9FD9;" d="M116.87,172.523H66.783v333.911h50.087c9.214,0,16.696-7.482,16.696-16.693V189.219
	C133.565,180.001,126.049,172.523,116.87,172.523z"/>
<path style="fill:#FFC3A6;" d="M461.913,172.523h-27.826l-300.52,300.519h278.259c37.53-0.022,62.793-40.435,43.4-74.637
	c21.714-13.764,30.639-42.193,16.696-66.783c21.714-13.764,30.639-42.193,16.696-66.783c14.01-8.88,23.371-24.411,23.383-42.23
	C511.981,194.942,489.581,172.54,461.913,172.523z"/>
<g>
</g>
<g>
</g>
<g>
</g>
<g>
</g>
<g>
</g>
<g>
</g>
<g>
</g>
<g>
</g>
<g>
</g>
<g>
</g>
<g>
</g>
<g>
</g>
<g>
</g>
<g>
</g>
<g>
</g>
</svg>
