<?xml version="1.0" encoding="iso-8859-1"?>
<!-- Generator: Adobe Illustrator 19.0.0, SVG Export Plug-In . SVG Version: 6.00 Build 0)  -->
<svg version="1.1" id="Layer_1" xmlns="http://www.w3.org/2000/svg" xmlns:xlink="http://www.w3.org/1999/xlink" x="0px" y="0px"
	 viewBox="0 0 463.079 463.079" style="enable-background:new 0 0 463.079 463.079;" xml:space="preserve">
<g id="XMLID_1652_">
	<g id="XMLID_807_">
		<path id="XMLID_33_" style="fill:#1A6FB0;" d="M463.079,23.497c0-8.284-6.716-15-15-15H15c-8.284,0-15,6.716-15,15v334.679
			c0,8.284,6.716,15,15,15h433.079c8.284,0,15-6.716,15-15V23.497z"/>
	</g>
	<g id="XMLID_808_">
		<path id="XMLID_34_" style="fill:#165C92;" d="M463.079,23.497c0-8.284-6.716-15-15-15H228.474v364.679h219.605
			c8.284,0,15-6.716,15-15L463.079,23.497L463.079,23.497z"/>
	</g>
	<g id="XMLID_817_">
		<polygon id="XMLID_35_" style="fill:#CD2A00;" points="373.597,454.583 338.812,438.308 304.027,454.583 304.027,346.9 
			373.597,346.9 		"/>
	</g>
	<g id="XMLID_820_">
		<polygon id="XMLID_36_" style="fill:#AB2300;" points="338.813,346.9 338.813,438.308 373.597,454.582 373.597,346.9 		"/>
	</g>
	<g id="XMLID_821_">
		<circle id="XMLID_37_" style="fill:#FFD422;" cx="338.812" cy="293.809" r="75.279"/>
	</g>
	<g id="XMLID_822_">
		<path id="XMLID_38_" style="fill:#FFFFFF;" d="M377.638,108.349H79.31c-8.284,0-15-6.716-15-15s6.716-15,15-15h298.328
			c8.284,0,15,6.716,15,15S385.922,108.349,377.638,108.349z"/>
	</g>
	<g id="XMLID_823_">
		<path id="XMLID_39_" style="fill:#FFFFFF;" d="M377.638,177.344H79.31c-8.284,0-15-6.716-15-15s6.716-15,15-15h298.328
			c8.284,0,15,6.716,15,15S385.922,177.344,377.638,177.344z"/>
	</g>
	<g id="XMLID_824_">
		<path id="XMLID_40_" style="fill:#FFFFFF;" d="M175.038,312.546H79.31c-8.284,0-15-6.716-15-15s6.716-15,15-15h95.729
			c8.284,0,15,6.716,15,15S183.322,312.546,175.038,312.546z"/>
	</g>
	<g id="XMLID_825_">
		<path id="XMLID_41_" style="fill:#EEBF00;" d="M338.813,218.529v150.558c41.575,0,75.279-33.704,75.279-75.279
			C414.091,252.233,380.388,218.529,338.813,218.529z"/>
	</g>
</g>
<g>
</g>
<g>
</g>
<g>
</g>
<g>
</g>
<g>
</g>
<g>
</g>
<g>
</g>
<g>
</g>
<g>
</g>
<g>
</g>
<g>
</g>
<g>
</g>
<g>
</g>
<g>
</g>
<g>
</g>
</svg>
