<svg id="icons" xmlns="http://www.w3.org/2000/svg" viewBox="0 0 60 64"><defs><style>.cls-1{fill:#4dbe86;}.cls-2{fill:#fac591;}.cls-3{fill:#84523c;}</style></defs><title>png64_px - Colored -70 Basic Icons</title><g id="Icon"><path class="cls-1" d="M30,30.56c-16.82,0-30,8.31-30,18.91v8.87C0,59.71,1.34,64,4.47,64H56.21C59,64,60,61,60,58.35V49.48C60,38.87,46.82,30.56,30,30.56Z"/><path class="cls-2" d="M30,0A17.67,17.67,0,0,0,12.27,17.56a17.73,17.73,0,0,0,35.45,0A17.67,17.67,0,0,0,30,0Z"/><path class="cls-3" d="M44,6.92a17.76,17.76,0,0,0-27.91-.19,0.12,0.12,0,0,0,.09.19H44Z"/></g></svg>